<?xml version="1.0" encoding="iso-8859-1"?>
<!-- Generator: Adobe Illustrator 18.0.0, SVG Export Plug-In . SVG Version: 6.00 Build 0)  -->
<!DOCTYPE svg PUBLIC "-//W3C//DTD SVG 1.1//EN" "http://www.w3.org/Graphics/SVG/1.1/DTD/svg11.dtd">
<svg version="1.1" id="Compound_Artwork" xmlns="http://www.w3.org/2000/svg" xmlns:xlink="http://www.w3.org/1999/xlink" x="0px"
	 y="0px" width="56.61" height="56.675" viewBox="0 0 56.61 56.675" style="enable-background:new 0 0 56.61 56.675;" xml:space="preserve">
<path style="fill:#2EBD59;" d="M26.9,19.833c0-0.366-0.215-0.7-0.551-0.857c-0.336-0.158-0.735-0.11-1.025,0.121
	c-1.518,1.214-5.982,4.436-8.392,4.769c-0.012,0.002-0.023,0.004-0.035,0.006c-0.955,0.167-3.381,0.513-3.405,0.517
	c-0.475,0.068-0.827,0.468-0.827,0.939v3.351c0,0.015,0.001,0.031,0.002,0.046c-0.001,0.015-0.002,0.03-0.002,0.046v2.648
	c0,0.471,0.352,0.872,0.827,0.939c0.024,0.004,2.449,0.35,3.405,0.517c0.012,0.002,0.023,0.004,0.035,0.005
	c2.407,0.332,6.874,3.556,8.392,4.77c0.176,0.14,0.392,0.213,0.61,0.213c0.141,0,0.283-0.031,0.414-0.092
	c0.336-0.158,0.551-0.491,0.551-0.857v-8.145c0-0.015-0.002-0.03-0.002-0.044c0-0.015,0.002-0.029,0.002-0.044V19.833z"/>
<path style="fill:#2EBD59;" d="M32.606,36.793c-0.199,0-0.399-0.067-0.565-0.203c-0.379-0.312-0.434-0.873-0.122-1.252
	c1.608-1.954,2.494-4.428,2.494-6.965c0-2.543-0.89-5.022-2.506-6.979c-0.313-0.379-0.259-0.94,0.12-1.253
	c0.379-0.313,0.94-0.258,1.253,0.12c1.878,2.276,2.912,5.156,2.912,8.112c0,2.948-1.029,5.823-2.899,8.095
	C33.118,36.682,32.864,36.793,32.606,36.793z"/>
<path style="fill:#2EBD59;" d="M37.611,41.323c-0.216,0-0.432-0.078-0.603-0.236c-0.361-0.333-0.384-0.896-0.051-1.257
	c2.886-3.129,4.475-7.198,4.475-11.457c0-4.15-1.518-8.141-4.275-11.236c-0.327-0.367-0.294-0.93,0.072-1.256
	c0.367-0.328,0.93-0.294,1.256,0.072c3.047,3.422,4.726,7.833,4.726,12.42c0,4.708-1.757,9.205-4.947,12.663
	C38.089,41.227,37.851,41.323,37.611,41.323z"/>
<path style="fill:#2EBD59;" d="M28.332,0.293c-15.464,0-28,12.536-28,28s12.536,28,28,28s28-12.536,28-28S43.796,0.293,28.332,0.293
	z M28.332,53.293c-13.785,0-25-11.215-25-25s11.215-25,25-25s25,11.215,25,25S42.117,53.293,28.332,53.293z"/>
</svg>