<?xml version="1.0" encoding="iso-8859-1"?>
<!-- Generator: Adobe Illustrator 18.0.0, SVG Export Plug-In . SVG Version: 6.00 Build 0)  -->
<!DOCTYPE svg PUBLIC "-//W3C//DTD SVG 1.1//EN" "http://www.w3.org/Graphics/SVG/1.1/DTD/svg11.dtd">
<svg version="1.1" id="Compound_Artwork_-_white" xmlns="http://www.w3.org/2000/svg" xmlns:xlink="http://www.w3.org/1999/xlink"
	 x="0px" y="0px" width="56.5" height="56.556" viewBox="0 0 56.5 56.556" style="enable-background:new 0 0 56.5 56.556;" xml:space="preserve">
<g>
	<path style="fill:#2EBD59;" d="M23.668,15.236c-1.274-0.871-2.316-0.321-2.316,1.222v24.904c0,1.543,1.042,2.093,2.316,1.222
		l17.683-12.09c1.274-0.871,1.274-2.297,0-3.168L23.668,15.236z"/>
</g>
<path style="fill:#2EBD59;" d="M28.265,0.295c-15.464,0-28,12.536-28,28s12.536,28,28,28s28-12.536,28-28S43.729,0.295,28.265,0.295
	z M28.265,53.295c-13.785,0-25-11.215-25-25s11.215-25,25-25s25,11.215,25,25S42.05,53.295,28.265,53.295z"/>
</svg>
