<?xml version="1.0" encoding="utf-8"?>
<!-- Generator: Adobe Illustrator 16.0.0, SVG Export Plug-In . SVG Version: 6.00 Build 0)  -->
<!DOCTYPE svg PUBLIC "-//W3C//DTD SVG 1.1//EN" "http://www.w3.org/Graphics/SVG/1.1/DTD/svg11.dtd">
<svg version="1.1" id="Compound_Artwork" xmlns="http://www.w3.org/2000/svg" xmlns:xlink="http://www.w3.org/1999/xlink" x="0px"
	 y="0px" width="395.334px" height="395.222px" viewBox="314.333 2.111 395.334 395.222"
	 enable-background="new 314.333 2.111 395.334 395.222" xml:space="preserve">
<path display="none" fill="#2EBD59" d="M502.111,140c0-2.556-1.557-4.889-3.89-6c-2.334-1.111-5.223-0.778-7.223,0.889
	c-10.667,8.556-42.223,31.333-59.223,33.667c-0.11,0-0.11,0-0.223,0c-6.777,1.222-23.889,3.667-24,3.667
	c-3.333,0.444-5.889,3.333-5.889,6.667v23.667c0,0.11,0,0.223,0,0.334c0,0.11,0,0.223,0,0.334v18.666
	c0,3.334,2.445,6.11,5.889,6.666c0.222,0,17.333,2.444,24,3.668c0.111,0,0.111,0,0.223,0c17,2.332,48.556,25.11,59.223,33.666
	c1.223,1,2.777,1.555,4.333,1.555c1,0,2-0.221,2.89-0.666c2.333-1.111,3.89-3.443,3.89-6v-57.443c0-0.111,0-0.223,0-0.334
	s0-0.223,0-0.334V140L502.111,140z"/>
<path display="none" fill="#2EBD59" d="M542.333,259.666c-1.444,0-2.777-0.443-4-1.443c-2.666-2.223-3.11-6.111-0.889-8.889
	C548.777,235.557,555,218.111,555,200.222c0-18-6.333-35.444-17.667-49.222c-2.222-2.667-1.777-6.667,0.89-8.889
	c2.666-2.223,6.666-1.778,8.89,0.889c13.222,16.111,20.556,36.444,20.556,57.222c0,20.778-7.223,41.112-20.444,57.112
	C546,258.889,544.223,259.666,542.333,259.666z"/>
<path display="none" fill="#2EBD59" d="M577.667,291.666c-1.556,0-3-0.555-4.223-1.666c-2.557-2.334-2.667-6.334-0.333-8.889
	c20.333-22.111,31.556-50.777,31.556-80.889c0-29.333-10.667-57.444-30.223-79.333c-2.333-2.555-2.111-6.555,0.556-8.889
	c2.556-2.333,6.556-2.111,8.889,0.556c21.557,24.111,33.334,55.333,33.334,87.667c0,33.222-12.444,65-34.89,89.333
	C581,291,579.333,291.666,577.667,291.666z"/>
<path fill="#2EBD59" d="M512,2.111c-109.111,0-197.667,88.444-197.667,197.555c0,109.111,88.556,197.667,197.667,197.667
	c109.111,0,197.667-88.444,197.667-197.667C709.667,90.443,621.111,2.111,512,2.111z M512,376.111
	c-97.333,0-176.444-79.111-176.444-176.445c0-97.333,79.111-176.444,176.444-176.444s176.444,79.111,176.444,176.444
	C688.444,297,609.333,376.111,512,376.111z"/>
<path fill="#2EBD59" stroke="#2EBD59" stroke-width="0.75" stroke-miterlimit="10" d="M481.011,287.348
	c0-16.004,13.084-29.471,29.086-29.471c15.992,0,29.449,13.467,29.449,29.471c0,15.656-13.457,29.125-29.449,29.125
	C494.095,316.473,481.011,303.004,481.011,287.348z M506.082,229.197c-7.723,0-14.359-6.32-14.753-14.045l-5.543-110.25
	c-0.395-7.713,5.62-14.034,13.342-14.034h22.679c7.724,0,13.744,6.321,13.37,14.043l-5.283,110.241
	c-0.374,7.725-6.99,14.045-14.716,14.045H506.082z"/>
</svg>
