<?xml version="1.0" encoding="utf-8"?>
<!-- Generator: Adobe Illustrator 18.0.0, SVG Export Plug-In . SVG Version: 6.00 Build 0)  -->
<!DOCTYPE svg PUBLIC "-//W3C//DTD SVG 1.1//EN" "http://www.w3.org/Graphics/SVG/1.1/DTD/svg11.dtd">
<svg version="1.1" id="Compound_Artwork" xmlns="http://www.w3.org/2000/svg" xmlns:xlink="http://www.w3.org/1999/xlink" x="0px"
	 y="0px" width="360" height="360" viewBox="0 0 360 360" enable-background="new 0 0 360 360" xml:space="preserve">
<path display="none" fill="#2EBD59" d="M171.1,126c0-2.3-1.4-4.4-3.5-5.4c-2.1-1-4.7-0.7-6.5,0.8c-9.6,7.7-38,28.2-53.3,30.3
	c-0.1,0-0.1,0-0.2,0c-6.1,1.1-21.5,3.3-21.6,3.3c-3,0.4-5.3,3-5.3,6v21.3c0,0.1,0,0.2,0,0.3c0,0.1,0,0.2,0,0.3v16.8
	c0,3,2.2,5.5,5.3,6c0.2,0,15.6,2.2,21.6,3.3c0.1,0,0.1,0,0.2,0c15.3,2.1,43.7,22.6,53.3,30.3c1.1,0.9,2.5,1.4,3.9,1.4
	c0.9,0,1.8-0.2,2.6-0.6c2.1-1,3.5-3.1,3.5-5.4v-51.7c0-0.1,0-0.2,0-0.3c0-0.1,0-0.2,0-0.3L171.1,126L171.1,126z"/>
<path display="none" fill="#2EBD59" d="M207.3,233.7c-1.3,0-2.5-0.4-3.6-1.3c-2.4-2-2.8-5.5-0.8-8c10.2-12.4,15.8-28.1,15.8-44.2
	c0-16.2-5.7-31.9-15.9-44.3c-2-2.4-1.6-6,0.8-8c2.4-2,6-1.6,8,0.8c11.9,14.5,18.5,32.8,18.5,51.5c0,18.7-6.5,37-18.4,51.4
	C210.6,233,209,233.7,207.3,233.7z"/>
<path display="none" fill="#2EBD59" d="M239.1,262.5c-1.4,0-2.7-0.5-3.8-1.5c-2.3-2.1-2.4-5.7-0.3-8c18.3-19.9,28.4-45.7,28.4-72.8
	c0-26.4-9.6-51.7-27.2-71.4c-2.1-2.3-1.9-5.9,0.5-8c2.3-2.1,5.9-1.9,8,0.5c19.4,21.7,30,49.8,30,78.9c0,29.9-11.2,58.5-31.4,80.4
	C242.1,261.9,240.6,262.5,239.1,262.5z"/>
<path fill="#2EBD59" d="M180,1.9C81.8,1.9,2.1,81.5,2.1,179.7S81.8,357.6,180,357.6s177.9-79.6,177.9-177.9S278.2,1.9,180,1.9z
	 M180,338.5c-87.6,0-158.8-71.2-158.8-158.8S92.4,20.9,180,20.9s158.8,71.2,158.8,158.8S267.6,338.5,180,338.5z"/>
<path fill="#2EBD59" d="M266.5,184.2h-61.1V96.5c0-7.7-6.3-13.9-13.9-13.9h-23c-7.7,0-13.9,6.3-13.9,13.9v87.7H93.5
	c-8.3,0-10.3,4.8-4.4,10.7l80.3,80.3c5.9,5.9,15.5,5.9,21.4,0l80.3-80.3C276.8,189,274.8,184.2,266.5,184.2z"/>
</svg>
