<?xml version="1.0" encoding="utf-8"?>
<!-- Generator: Adobe Illustrator 16.0.0, SVG Export Plug-In . SVG Version: 6.00 Build 0)  -->
<!DOCTYPE svg PUBLIC "-//W3C//DTD SVG 1.1//EN" "http://www.w3.org/Graphics/SVG/1.1/DTD/svg11.dtd">
<svg version="1.1" id="Layer_1" xmlns="http://www.w3.org/2000/svg" xmlns:xlink="http://www.w3.org/1999/xlink" x="0px" y="0px"
	 width="90px" height="45px" viewBox="0 0 90 45" enable-background="new 0 0 90 45" xml:space="preserve">
<g opacity="0.95">
	<path fill="#2F3131" d="M44.597,22.5c0,12.2-9.894,22.094-22.096,22.094C10.296,44.594,0.402,34.7,0.402,22.5
		c0-12.205,9.894-22.1,22.099-22.1C34.704,0.401,44.597,10.295,44.597,22.5z"/>
</g>
<g>
	<path fill="#EE7B45" d="M89.443,22.5c0,12.2-9.896,22.094-22.096,22.094c-12.205,0-22.101-9.894-22.101-22.094
		c0-12.205,9.896-22.1,22.101-22.1C79.55,0.401,89.443,10.295,89.443,22.5z"/>
</g>
<g>
	<path fill="#F4F4F4" d="M67.345,9.5c-7.179,0-13,5.82-13,13c0,7.18,5.821,13,13,13c7.181,0,13-5.82,13-13
		C80.345,15.32,74.525,9.5,67.345,9.5z M75.595,15.487c1.462,1.719,2.393,3.898,2.551,6.292c-2.34-0.125-5.143-0.123-7.396,0.089
		c-0.281-0.719-0.574-1.424-0.891-2.1C72.458,18.646,74.456,17.168,75.595,15.487z M67.345,11.667c2.628,0,5.037,0.936,6.912,2.492
		c-1.178,1.493-3.021,2.786-5.326,3.764c-1.26-2.326-2.706-4.331-4.25-5.912C65.535,11.792,66.424,11.667,67.345,11.667z
		 M62.444,12.847c1.564,1.554,3.034,3.542,4.318,5.86c-2.446,0.745-5.25,1.174-8.238,1.174c-0.565,0-1.121-0.021-1.674-0.052
		C57.628,16.779,59.696,14.246,62.444,12.847z M56.53,21.982c0.616,0.026,1.239,0.039,1.871,0.031
		c3.41-0.044,6.592-0.572,9.317-1.447c0.255,0.534,0.499,1.084,0.731,1.646c-0.372,0.086-0.702,0.183-0.969,0.293
		c-3.732,1.562-6.668,4.091-8.262,7.146c-1.68-1.91-2.708-4.408-2.708-7.151C56.512,22.326,56.522,22.154,56.53,21.982z
		 M67.345,33.332c-2.504,0-4.803-0.857-6.639-2.283c1.441-2.855,4.014-5.217,7.26-6.689c0.308-0.139,0.713-0.256,1.178-0.355
		c0.385,1.072,0.733,2.182,1.034,3.33c0.47,1.795,0.798,3.566,1.003,5.287C69.987,33.074,68.698,33.332,67.345,33.332z M73.2,31.605
		c-0.204-1.738-0.535-3.527-1.01-5.34c-0.23-0.881-0.496-1.732-0.777-2.57c2.125-0.172,4.674-0.146,6.695,0
		C77.741,27.018,75.876,29.883,73.2,31.605z"/>
</g>
<g>
	<path fill="#F4F4F4" d="M22.499,9.5c-7.179,0-13,5.82-13,13c0,7.18,5.821,13,13,13c7.181,0,13-5.82,13-13
		C35.499,15.32,29.68,9.5,22.499,9.5z M30.749,15.487c1.462,1.719,2.393,3.898,2.551,6.292c-2.34-0.125-5.143-0.123-7.396,0.089
		c-0.281-0.719-0.574-1.424-0.891-2.1C27.612,18.646,29.61,17.168,30.749,15.487z M22.499,11.667c2.628,0,5.037,0.936,6.912,2.492
		c-1.178,1.493-3.021,2.786-5.326,3.764c-1.26-2.326-2.706-4.331-4.25-5.912C20.689,11.792,21.578,11.667,22.499,11.667z
		 M17.599,12.847c1.564,1.554,3.034,3.542,4.318,5.86c-2.446,0.745-5.25,1.174-8.238,1.174c-0.565,0-1.121-0.021-1.674-0.052
		C12.782,16.779,14.851,14.246,17.599,12.847z M11.685,21.982c0.616,0.026,1.239,0.039,1.871,0.031
		c3.41-0.044,6.592-0.572,9.317-1.447c0.255,0.534,0.499,1.084,0.731,1.646c-0.372,0.086-0.702,0.183-0.969,0.293
		c-3.732,1.562-6.668,4.091-8.262,7.146c-1.68-1.91-2.708-4.408-2.708-7.151C11.666,22.326,11.677,22.154,11.685,21.982z
		 M22.499,33.332c-2.504,0-4.803-0.857-6.639-2.283c1.441-2.855,4.014-5.217,7.26-6.689c0.308-0.139,0.713-0.256,1.178-0.355
		c0.385,1.072,0.733,2.182,1.034,3.33c0.47,1.795,0.798,3.566,1.003,5.287C25.142,33.074,23.853,33.332,22.499,33.332z
		 M28.354,31.605c-0.204-1.738-0.535-3.527-1.01-5.34c-0.23-0.881-0.496-1.732-0.777-2.57c2.125-0.172,4.674-0.146,6.695,0
		C32.896,27.018,31.03,29.883,28.354,31.605z"/>
</g>
</svg>
