<?xml version="1.0" encoding="utf-8"?>
<!-- Generator: Adobe Illustrator 16.0.0, SVG Export Plug-In . SVG Version: 6.00 Build 0)  -->
<!DOCTYPE svg PUBLIC "-//W3C//DTD SVG 1.1//EN" "http://www.w3.org/Graphics/SVG/1.1/DTD/svg11.dtd">
<svg version="1.1" id="Layer_1" xmlns="http://www.w3.org/2000/svg" xmlns:xlink="http://www.w3.org/1999/xlink" x="0px" y="0px"
	 width="90px" height="45px" viewBox="0 0 90 45" enable-background="new 0 0 90 45" xml:space="preserve">
<g opacity="0.95">
	<path fill="#2F3131" d="M44.597,22.5c0,12.2-9.894,22.094-22.096,22.094C10.296,44.594,0.402,34.7,0.402,22.5
		c0-12.205,9.894-22.1,22.099-22.1C34.704,0.401,44.597,10.295,44.597,22.5z"/>
</g>
<g>
	<path fill="#EE7B45" d="M89.443,22.5c0,12.2-9.895,22.094-22.096,22.094c-12.205,0-22.1-9.894-22.1-22.094
		c0-12.205,9.895-22.1,22.1-22.1C79.55,0.401,89.443,10.295,89.443,22.5z"/>
</g>
<path fill="#F4F4F4" d="M34.97,22.46c-2.545,10.326-19.646,14.705-27.514,3.986c3.014,2.875,8.262,3.127,11.588-0.312
	c-1.949,0.282-3.37-1.628-0.973-2.664c-2.156,0.237-3.355-0.909-3.848-1.881c0.507-0.529,1.064-0.774,2.143-0.846
	c-2.359-0.562-3.231-1.711-3.498-3.111c0.655-0.159,1.475-0.291,1.922-0.23c-2.068-1.082-2.785-2.707-2.672-3.931
	c3.692,1.373,6.049,2.474,8.016,3.528c0.7,0.373,1.482,1.049,2.365,1.902c1.125-2.97,2.514-6.029,4.89-7.55
	c-0.038,0.345-0.224,0.664-0.468,0.929c0.676-0.615,1.552-1.037,2.443-1.156c-0.104,0.668-1.066,1.043-1.648,1.265
	c0.439-0.14,2.78-1.181,3.035-0.587c0.303,0.676-1.615,0.986-1.94,1.104c-0.242,0.082-0.486,0.174-0.726,0.271
	c2.965-0.297,5.797,2.149,6.623,5.185c0.061,0.219,0.118,0.463,0.172,0.721c1.084,0.399,3.051-0.023,3.682-0.412
	c-0.459,1.084-1.646,1.88-3.4,2.025c0.844,0.352,2.438,0.543,3.54,0.357C38.003,21.801,36.88,22.478,34.97,22.46z"/>
<path fill="#F4F4F4" d="M79.815,22.46c-2.545,10.326-19.646,14.705-27.517,3.986c3.017,2.875,8.265,3.127,11.591-0.312
	c-1.949,0.282-3.371-1.628-0.976-2.664c-2.153,0.237-3.354-0.909-3.849-1.881c0.509-0.529,1.064-0.774,2.144-0.846
	c-2.356-0.562-3.229-1.711-3.498-3.111c0.656-0.159,1.478-0.291,1.925-0.23c-2.068-1.082-2.785-2.707-2.675-3.931
	c3.692,1.373,6.052,2.474,8.019,3.528c0.699,0.373,1.479,1.049,2.365,1.902c1.125-2.97,2.514-6.029,4.889-7.55
	c-0.037,0.345-0.223,0.664-0.467,0.929c0.676-0.615,1.551-1.037,2.44-1.156c-0.104,0.668-1.063,1.043-1.646,1.265
	c0.438-0.14,2.778-1.181,3.035-0.587c0.303,0.676-1.615,0.986-1.941,1.104c-0.242,0.082-0.486,0.174-0.725,0.271
	c2.965-0.297,5.797,2.149,6.623,5.185c0.059,0.219,0.116,0.463,0.172,0.721c1.084,0.399,3.051-0.023,3.682-0.412
	c-0.459,1.084-1.648,1.88-3.402,2.025c0.846,0.352,2.439,0.543,3.541,0.357C82.849,21.801,81.726,22.478,79.815,22.46z"/>
</svg>
