<?xml version="1.0" encoding="utf-8"?>
<!-- Generator: Adobe Illustrator 15.1.0, SVG Export Plug-In . SVG Version: 6.00 Build 0)  -->
<!DOCTYPE svg PUBLIC "-//W3C//DTD SVG 1.1//EN" "http://www.w3.org/Graphics/SVG/1.1/DTD/svg11.dtd">
<svg version="1.1" id="Layer_1" xmlns="http://www.w3.org/2000/svg" xmlns:xlink="http://www.w3.org/1999/xlink" x="0px" y="0px"
	 width="35px" height="35px" viewBox="0 0 35 35" enable-background="new 0 0 35 35" xml:space="preserve">
<g>
	<path fill="#FFFFFF" d="M17.159,18.491l2.913,1.597c-0.238-1.369-0.949-2.377-2.129-3.026L15,15.448
		C15.181,16.786,15.899,17.801,17.159,18.491"/>
	<path fill="#FFFFFF" d="M17.5,0C7.835,0,0,7.836,0,17.5S7.835,35,17.5,35C27.166,35,35,27.165,35,17.5S27.166,0,17.5,0
		 M27.752,14.08c-0.323,0.592-0.81,0.98-1.459,1.17c-0.648,0.187-1.268,0.12-1.859-0.202c-0.609-0.334-1.013-0.84-1.21-1.518
		c-0.318-1.091-0.982-1.915-1.991-2.468c-1.371-0.752-2.733-0.757-4.085-0.009l3.145,1.722c2.208,1.21,3.665,3.027,4.372,5.446
		c0.705,2.418,0.452,4.732-0.76,6.941c-1.212,2.21-3.025,3.667-5.445,4.373c-2.418,0.704-4.732,0.453-6.942-0.761
		c-2.076-1.138-3.489-2.853-4.237-5.148c-0.33-0.752-0.31-1.469,0.068-2.155c0.322-0.591,0.809-0.979,1.458-1.17
		c0.649-0.188,1.269-0.121,1.859,0.202c0.61,0.334,1.013,0.842,1.212,1.521c0.317,1.091,0.981,1.913,1.991,2.466
		c1.389,0.762,2.751,0.767,4.083,0.009l-3.142-1.722c-2.21-1.212-3.668-3.027-4.372-5.445c-0.707-2.419-0.453-4.733,0.758-6.942
		c1.211-2.21,3.026-3.666,5.447-4.372c2.418-0.706,4.73-0.453,6.939,0.76c2.077,1.138,3.49,2.854,4.238,5.147
		C28.15,12.675,28.128,13.396,27.752,14.08"/>
</g>
</svg>
