<?xml version="1.0" encoding="utf-8"?>
<!-- Generator: Adobe Illustrator 16.0.0, SVG Export Plug-In . SVG Version: 6.00 Build 0)  -->
<!DOCTYPE svg PUBLIC "-//W3C//DTD SVG 1.1//EN" "http://www.w3.org/Graphics/SVG/1.1/DTD/svg11.dtd">
<svg version="1.1" id="Layer_1" xmlns="http://www.w3.org/2000/svg" xmlns:xlink="http://www.w3.org/1999/xlink" x="0px" y="0px"
	 width="23.07px" height="14px" viewBox="0 0 23.07 14" enable-background="new 0 0 23.07 14" xml:space="preserve">
<g>
	<g>
		<path fill="#2F3131" d="M2.013,0.959C1.449,1.318,1.07,1.947,1.07,2.669l0.001,8.603c-0.001,0.69,0.349,1.302,0.878,1.666
			L7.97,6.915L2.013,0.959z"/>
		<path fill="#2F3131" d="M21.931,11.27V2.669c0-0.718-0.67-1.351-1.232-1.71l-5.898,5.9l6.029,6.026
			C21.319,12.52,21.931,11.934,21.931,11.27z"/>
		<path fill="#2F3131" d="M19.78,13.259l-5.594-5.791l-1.824,1.825c-0.558,0.557-1.457,0.559-2.013,0.005l-1.825-1.83L2.93,13.259
			H19.78z"/>
		<path fill="#2F3131" d="M19.398,0.741l-7.12,7.12c-0.53,0.531-1.396,0.529-1.929,0L3.26,0.769L19.398,0.741z"/>
	</g>
</g>
</svg>
