<?xml version="1.0" encoding="utf-8"?>
<!-- Generator: Adobe Illustrator 16.0.0, SVG Export Plug-In . SVG Version: 6.00 Build 0)  -->
<!DOCTYPE svg PUBLIC "-//W3C//DTD SVG 1.1//EN" "http://www.w3.org/Graphics/SVG/1.1/DTD/svg11.dtd">
<svg version="1.1" id="Layer_1" xmlns="http://www.w3.org/2000/svg" xmlns:xlink="http://www.w3.org/1999/xlink" x="0px" y="0px"
	 width="18.055px" height="18px" viewBox="0 0 18.055 18" enable-background="new 0 0 18.055 18" xml:space="preserve">
<g>
	<path fill="#2F3131" d="M16.99,14.785c0.385-0.385,0.385-1.01,0-1.395l-2.439-2.439c-0.387-0.387-1.013-0.389-1.396-0.003
		L11.6,12.503c-0.565,0.565-1.788,0.479-2.276-0.01L5.572,8.742C5.083,8.253,4.978,7.057,5.566,6.468l1.561-1.549
		c0.386-0.386,0.385-1.008,0-1.396L4.685,1.085C4.3,0.7,3.676,0.7,3.289,1.085L1.737,2.639C0.112,4.581,0.94,8.207,2.789,10.057
		l5.164,5.161c1.851,1.853,5.528,2.769,7.469,1.144L16.99,14.785z"/>
</g>
</svg>
