<?xml version="1.0" encoding="utf-8"?>
<!-- Generator: Adobe Illustrator 16.0.0, SVG Export Plug-In . SVG Version: 6.00 Build 0)  -->
<!DOCTYPE svg PUBLIC "-//W3C//DTD SVG 1.1//EN" "http://www.w3.org/Graphics/SVG/1.1/DTD/svg11.dtd">
<svg version="1.1" id="Layer_1" xmlns="http://www.w3.org/2000/svg" xmlns:xlink="http://www.w3.org/1999/xlink" x="0px" y="0px"
	 width="150px" height="150px" viewBox="0 0 150 150" enable-background="new 0 0 150 150" xml:space="preserve">
<circle fill="#D6E3E5" cx="75" cy="75" r="72.764"/>
<rect x="36.594" y="39.223" opacity="0.9" fill="#EE7B46" enable-background="new    " width="77.658" height="74.048"/>
<rect x="41.732" y="91.503" fill="#464748" width="31.974" height="6.416"/>
<rect x="41.732" y="100.416" fill="#464748" width="31.974" height="6.417"/>
<rect x="76.842" y="91.503" fill="#464748" width="31.975" height="6.416"/>
<rect x="76.842" y="100.416" fill="#464748" width="31.975" height="6.417"/>
<rect x="41.732" y="68.082" opacity="0.9" fill="#EE7B46" enable-background="new    " width="67.083" height="2.496"/>
<rect x="73.705" y="70.58" opacity="0.9" fill="#EE7B46" enable-background="new    " width="3.137" height="36.598"/>
<rect x="41.732" y="49.315" fill="#464748" width="67.083" height="18.386"/>
<rect x="41.732" y="70.396" fill="#464748" width="31.974" height="18.383"/>
<rect x="76.842" y="70.945" fill="#464748" width="31.975" height="18.386"/>
<ellipse fill="#464748" cx="95.797" cy="43.629" rx="1.799" ry="1.653"/>
<ellipse fill="#464748" cx="101.35" cy="43.629" rx="1.799" ry="1.653"/>
<ellipse fill="#464748" cx="107.016" cy="43.629" rx="1.801" ry="1.653"/>
<polygon opacity="0.35" fill="#353535" enable-background="new    " points="41.732,107.178 108.814,49.325 108.814,107.178 "/>
<rect x="41.732" y="97.92" opacity="0.9" fill="#EE7B46" enable-background="new    " width="67.083" height="2.496"/>
<rect x="41.732" y="88.436" opacity="0.9" fill="#EE7B46" enable-background="new    " width="67.083" height="3.276"/>
</svg>
