<?xml version="1.0" encoding="utf-8"?>
<!-- Generator: Adobe Illustrator 16.0.0, SVG Export Plug-In . SVG Version: 6.00 Build 0)  -->
<!DOCTYPE svg PUBLIC "-//W3C//DTD SVG 1.1//EN" "http://www.w3.org/Graphics/SVG/1.1/DTD/svg11.dtd">
<svg version="1.1" id="Layer_1" xmlns="http://www.w3.org/2000/svg" xmlns:xlink="http://www.w3.org/1999/xlink" x="0px" y="0px"
	 width="150px" height="150px" viewBox="0 0 150 150" enable-background="new 0 0 150 150" xml:space="preserve">
<circle fill="#D6E3E5" cx="75.185" cy="75" r="72.764"/>
<g>

		<rect x="36.745" y="46.16" fill="#464748" stroke="#EE7B46" stroke-width="5" stroke-miterlimit="10" width="77.274" height="52.928"/>
	<polygon opacity="0.35" fill="#353535" enable-background="new    " points="38.973,96.924 111.855,48.239 111.855,96.924 	"/>
	<rect x="69.794" y="99.088" opacity="0.9" fill="#EE7B46" enable-background="new    " width="11.821" height="8.164"/>
	<rect x="51.091" y="107.252" opacity="0.9" fill="#EE7B46" enable-background="new    " width="52.226" height="2.822"/>
	<ellipse fill="#464748" cx="75.704" cy="103.17" rx="1.69" ry="1.554"/>
	<rect x="91.598" y="82.553" fill="#EAE8E8" width="4.758" height="4.479"/>
	<rect x="91.598" y="76.393" fill="#EAE8E8" width="4.758" height="4.479"/>
	<rect x="85.436" y="76.393" fill="#EAE8E8" width="4.76" height="4.479"/>
	<rect x="55.054" y="70.131" fill="#EAE8E8" width="4.76" height="4.479"/>
	<rect x="85.436" y="70.131" fill="#EAE8E8" width="4.76" height="4.479"/>
	<rect x="79.415" y="70.131" fill="#EAE8E8" width="4.76" height="4.479"/>
	<rect x="73.394" y="70.131" fill="#EAE8E8" width="4.76" height="4.479"/>
	<rect x="73.394" y="63.688" fill="#EAE8E8" width="4.76" height="4.481"/>
	<rect x="67.376" y="63.688" fill="#EAE8E8" width="4.758" height="4.481"/>
	<rect x="67.376" y="58.051" fill="#EAE8E8" width="4.758" height="4.48"/>
	<rect x="67.376" y="70.131" fill="#EAE8E8" width="4.758" height="4.479"/>
	<rect x="61.354" y="76.393" fill="#EAE8E8" width="4.762" height="4.479"/>
	<rect x="55.054" y="63.688" fill="#EAE8E8" width="4.76" height="4.481"/>
	<rect x="61.354" y="70.131" fill="#EAE8E8" width="4.762" height="4.479"/>
	<polygon opacity="0.35" fill="#353535" enable-background="new    " points="69.755,101.221 81.615,101.221 81.615,107.252 	"/>
</g>
</svg>
