<?xml version="1.0" encoding="utf-8"?>
<!-- Generator: Adobe Illustrator 16.0.0, SVG Export Plug-In . SVG Version: 6.00 Build 0)  -->
<!DOCTYPE svg PUBLIC "-//W3C//DTD SVG 1.1//EN" "http://www.w3.org/Graphics/SVG/1.1/DTD/svg11.dtd">
<svg version="1.1" id="Layer_1" xmlns="http://www.w3.org/2000/svg" xmlns:xlink="http://www.w3.org/1999/xlink" x="0px" y="0px"
	 width="150px" height="150px" viewBox="0 0 150 150" enable-background="new 0 0 150 150" xml:space="preserve">
<circle fill="#D6E3E5" cx="75" cy="75" r="72.764"/>
<g>
	<path fill="#464748" d="M66.151,104.907L57.95,86.068c-1.797,2.104-1.608,4.74-0.885,6.842c0,0,4.389,11.329,6.203,14.919
		c0.144,0.282,1.357,2.333,1.523,2.603c0.307,0.494,0,0,0.332,0.476c0.26,0.375,1.137,1.409,1.137,1.409
		c3.028,3.748,2.969,7.369,3.598,10.252c0.349,2.479,2.654,4.379,4.943,3.979c2.285-0.243,3.75-2.846,3.551-5.2
		c-0.041-2.369-1.856-4.703-4.061-4.611c-2.295,0.091-2.032,0.945-2.91,1.033c-1.121,0.108-1.188-3.479-3.484-8.845l-0.065-0.155
		L66.151,104.907z M71.114,120.646c0.466-2.646,3.904-3.188,5.377-0.828c1.007,1.615,0.521,4.423-1.354,5.045
		C72.871,125.834,70.551,123.055,71.114,120.646z"/>
	<g opacity="0.95">
		<rect x="43.93" y="40.209" fill="#EE7B46" width="60.976" height="63.416"/>
	</g>
	<g>
		<rect x="65.586" y="96.021" fill="#464748" width="0.769" height="7.604"/>
	</g>
	<g>
		<rect x="65.575" y="84.482" fill="#464748" width="0.769" height="7.604"/>
	</g>
	<g>
		<rect x="65.562" y="72.944" fill="#464748" width="0.768" height="7.604"/>
	</g>
	<g>
		<rect x="65.55" y="61.409" fill="#464748" width="0.768" height="7.606"/>
	</g>
	<g>
		<rect x="65.534" y="49.87" fill="#464748" width="0.767" height="7.604"/>
	</g>
	<g>
		<rect x="65.51" y="40.209" fill="#464748" width="0.769" height="5.731"/>
	</g>
	<g>
		<g>
			<polygon fill="#EAE8E8" points="113.426,73.948 111.475,66.563 109.475,73.965 			"/>
		</g>
		<g>
			<polygon fill="#464748" points="109.473,73.965 113.422,73.95 113.514,99.883 109.562,99.898 			"/>
		</g>
		<g>
			<polygon fill="#464748" points="109.58,103.625 113.527,103.607 113.521,99.889 109.564,99.907 			"/>
		</g>
		<g>
			<rect x="109.559" y="98.471" fill="#EAE8E8" width="3.963" height="1.775"/>
		</g>
		<g>
			<polygon fill="#464748" points="112.409,70.106 111.475,66.563 110.479,70.131 			"/>
		</g>
	</g>
	<g>
		<rect x="86.771" y="30.692" fill="#464748" width="11.996" height="83.291"/>
	</g>
	<g>
		<g>
			<path fill="#D6E3E5" d="M94.756,111.068c-0.879,0-1.593-0.834-1.593-1.87c0-1.026,0.714-1.866,1.593-1.866
				c0.881,0,1.596,0.838,1.596,1.866C96.352,110.234,95.637,111.068,94.756,111.068z"/>
		</g>
	</g>
	<g opacity="0.35">
		<polygon fill="#353535" points="82.398,103.625 86.741,40.679 86.771,103.625 		"/>
	</g>
	<g opacity="0.35">
		<polygon fill="#353535" points="66.418,98.016 71.506,86.777 66.368,103.625 		"/>
	</g>
	<g opacity="0.35">
		<rect x="108.375" y="73.965" fill="#353535" width="1.1" height="29.66"/>
	</g>
	<g opacity="0.35">
		<polygon fill="#353535" points="111.475,66.563 108.375,73.965 109.475,73.965 		"/>
	</g>
	<path fill="#464748" d="M68.735,108.107c1.352-3.771,4.424-15.459,4.424-15.459c0.48-2.183,0.371-4.822-1.649-6.672l-5.965,19.612
		l-1.231,4.056l-0.099,0.321c-1.677,5.625-1.334,9.197-2.459,9.234c-0.881,0.028-0.719-0.855-3.006-0.646
		c-2.197,0.2-3.735,2.754-3.511,5.11c0.068,2.362,1.816,4.756,4.113,4.696c2.318,0.101,4.394-2.09,4.455-4.596
		c0.301-2.945-0.211-6.564,2.416-10.647c0.273-0.433,0.84-1.279,1.086-1.732C67.733,110.605,68.433,108.953,68.735,108.107z
		 M56.918,121.907c1.19-2.534,4.67-2.448,5.43,0.118c0.832,2.313-1.157,5.38-3.516,4.711
		C56.901,126.364,56.101,123.645,56.918,121.907z"/>
</g>
</svg>
